<svg preserveAspectRatio="none" width="100%" height="100%" overflow="visible" style="display: block;" viewBox="0 0 11.1791 11.1791" fill="none" xmlns="http://www.w3.org/2000/svg">
<g id="Group 117">
<path id="Rectangle 176" d="M6.71378 1.3309C7.34042 0.917286 8.14155 0.891688 8.78995 1.25376L8.91691 1.3309L9.05558 1.43344C9.18986 1.54244 9.3105 1.66687 9.41105 1.76743L9.43253 1.78793L9.44328 1.80063C9.57246 1.92921 9.73277 2.08619 9.84855 2.26157C10.2897 2.92988 10.2897 3.79737 9.84855 4.46567C9.72286 4.65606 9.54512 4.82574 9.41105 4.95981L5.35831 9.01254C5.20131 9.16957 4.99767 9.38483 4.73429 9.53403C4.47058 9.68334 4.18031 9.74772 3.96476 9.80161L2.94035 10.0575C2.79248 10.0944 2.57109 10.1527 2.37687 10.1717C2.17021 10.1919 1.71827 10.1985 1.34953 9.82993C0.980865 9.46127 0.987524 9.00937 1.00773 8.80258C1.02674 8.60825 1.08501 8.38604 1.12199 8.23813L1.37785 7.21372C1.4317 6.99827 1.49532 6.70867 1.64445 6.44516L1.76749 6.25864C1.89852 6.08263 2.04904 5.93802 2.16691 5.82016L6.21964 1.76743C6.35369 1.63337 6.52347 1.45655 6.71378 1.3309Z" stroke="var(--stroke-0, #CACACA)" stroke-width="2"/>
<path id="Vector 107" d="M6.334 2.47465L8.11178 1.28946L9.88955 3.06724L8.70437 4.84502L6.334 2.47465Z" fill="var(--fill-0, #CACACA)"/>
</g>
</svg>
