<svg preserveAspectRatio="none" width="100%" height="100%" overflow="visible" style="display: block;" viewBox="0 0 24 24" fill="none" xmlns="http://www.w3.org/2000/svg">
<g id="Frame 142">
<rect width="24" height="24" rx="12" fill="var(--fill-0, #212331)"/>
<path id="Vector 110" d="M6.97834 13.811L11.5462 18.5311L11.5462 18.5311C11.6337 18.6215 11.6775 18.6667 11.7214 18.6962C11.8899 18.8093 12.1101 18.8093 12.2786 18.6962C12.3225 18.6667 12.3663 18.6215 12.4538 18.5311L17.0217 13.811C18.1693 12.625 18.3115 10.7906 17.3603 9.44194L17.0033 8.93573C15.7864 7.21053 13.1506 7.48155 12.3103 9.41827C12.1925 9.68972 11.8075 9.68972 11.6897 9.41827C10.8494 7.48155 8.21358 7.21053 6.99674 8.93573L6.6397 9.44194C5.68847 10.7906 5.83067 12.625 6.97834 13.811Z" fill="var(--fill-0, #CACACA)"/>
</g>
</svg>
